<?xml version="1.0" encoding="utf-8"?>
<!-- Generator: Adobe Illustrator 19.2.1, SVG Export Plug-In . SVG Version: 6.00 Build 0)  -->
<svg version="1.1" id="layer" xmlns="http://www.w3.org/2000/svg"
	xmlns:xlink="http://www.w3.org/1999/xlink" x="0px" y="0px"
	viewBox="0 0 652 652" style="enable-background:new 0 0 652 652;" xml:space="preserve">
<style type="text/css">
	.st0{fill:#232A3F;}
</style>
<path class="st0" d="M17,256.1h36.4v114.8H17V256.1z M17,206.3h123.2v31.3H17V206.3z M196.7,370.9h-36.4v-9.1
	c-8.9,8-20.7,12.5-35.5,12.5c-30.3,0-55.7-24.3-55.7-60.5c0-35.9,25.5-60.5,55.7-60.5c14.8,0,26.6,4.5,35.5,12.5v-59.4h36.4V370.9z
	 M160.3,313.7c0-17.5-13.2-29.6-28-29.6c-15.9,0-27.5,12.1-27.5,29.6c0,17.8,11.6,29.6,27.5,29.6
	C147.1,343.4,160.3,331.5,160.3,313.7z M332.7,323.1H249c3,13.6,12.3,22.1,24.6,22.1c8.4,0,18.2-2.1,24.3-13.2l32.3,6.6
	c-9.8,24.1-30.5,35.7-56.7,35.7c-33,0-60.3-24.4-60.3-60.5c0-35.9,27.3-60.5,60.5-60.5c32.3,0,58.3,23.2,58.9,60.5V323.1z
	 M249.7,300.8h47.1c-3.4-12.3-12.5-18-23-18C263.6,282.8,253.1,289.2,249.7,300.8z M476.1,373.1c0,35.2-30,54.6-67.1,54.6
	c-26.1,0-45.9-9.1-57.1-27.5l30.3-18.7c8.4,10.2,15,14.1,26.9,14.1c16.4,0,30.7-8.2,30.7-26.2v-7.7c-8.9,8-20.7,12.5-35.5,12.5
	c-30.3,0-55.7-24.3-55.7-60.5c0-35.9,25.5-60.5,55.7-60.5c14.8,0,26.6,4.5,35.5,12.5v-9.1h36.4V373.1z M439.7,313.7
	c0-17.5-13.2-29.6-28-29.6c-15.9,0-27.5,12.1-27.5,29.6c0,17.8,11.6,29.6,27.5,29.6C426.5,343.4,439.7,331.5,439.7,313.7z
	 M617,313.7c0,36.2-28.6,60.3-62.6,60.3c-34.6,0-63.3-24.1-63.3-60.3c0-35.9,28.7-60.1,63.3-60.1C588.4,253.7,617,277.8,617,313.7z
	 M582,313.7c0-17.7-13.4-29.6-27.5-29.6c-14.8,0-28.2,11.8-28.2,29.6c0,18,13.4,29.6,28.2,29.6C568.5,343.4,582,331.7,582,313.7z"/>
</svg>